<?xml version="1.0" standalone="no"?>
<!DOCTYPE svg PUBLIC "-//W3C//DTD SVG 20010904//EN"
 "http://www.w3.org/TR/2001/REC-SVG-20010904/DTD/svg10.dtd">
<svg version="1.0" xmlns="http://www.w3.org/2000/svg"
 width="800.000000pt" height="800.000000pt" viewBox="0 0 800.000000 800.000000"
 preserveAspectRatio="xMidYMid meet">
<metadata>
Created by potrace 1.11, written by Peter Selinger 2001-2013
</metadata>
<g transform="translate(0.000000,800.000000) scale(0.100000,-0.100000)"
fill="#000000" stroke="none">
<path d="M3888 7107 c-83 -32 -163 -113 -193 -197 -20 -56 -19 -165 2 -226 11
-34 35 -67 77 -110 72 -71 126 -94 226 -94 100 0 154 23 226 94 77 77 98 132
92 244 -5 121 -58 206 -165 269 -40 23 -60 28 -138 30 -58 2 -103 -2 -127 -10z"/>
<path d="M267 5999 c-66 -10 -127 -42 -176 -91 -61 -62 -85 -119 -89 -210 -6
-112 15 -167 92 -244 70 -70 135 -98 226 -98 91 0 156 28 226 98 71 72 94 126
94 227 0 79 -19 137 -63 195 -72 95 -191 142 -310 123z"/>
<path d="M7627 5999 c-66 -10 -127 -42 -176 -91 -61 -62 -85 -119 -89 -210 -6
-112 15 -167 92 -244 70 -70 135 -98 226 -98 91 0 156 28 226 98 71 72 94 126
94 227 0 79 -19 137 -63 195 -72 95 -191 142 -310 123z"/>
<path d="M3441 4692 c-305 -631 -557 -1151 -562 -1156 -4 -5 -544 296 -1199
669 -655 372 -1194 674 -1197 671 -5 -5 24 -132 161 -691 24 -99 87 -360 141
-580 54 -220 117 -481 141 -580 24 -99 125 -513 224 -920 99 -407 206 -848
238 -980 l59 -240 2549 0 2548 0 22 90 c19 81 363 1480 534 2175 419 1701 424
1720 417 1726 -3 3 -542 -299 -1197 -671 -655 -373 -1195 -674 -1199 -669 -5
5 -257 525 -562 1156 -305 631 -556 1148 -559 1147 -3 0 -254 -516 -559 -1147z"/>
</g>
</svg>
